<svg width="280" height="280" fill="none" xmlns="http://www.w3.org/2000/svg"><path d="M46.326 209.322c7.406 18.073 19.482 21.836 27.972 18.073 16.42-7.275 59.074-15.403 102.881 3.704 58.02 25.307 70.365-12.874 51.848-51.495-18.517-38.621-24.794-77.678-3.447-99.196 21.347-21.517-6.588-55.179-56.196-20.14-32.059 22.644-55.586 17.602-68.22 11.2-11.907-6.033-25.15-12.34-37.556-7.415-15.055 5.976-20.986 18.932 1.918 47.875 32.458 41.015-35.802 56.884-19.2 97.394Z" fill="#F2F6FF"/><path d="M214.055 84.561c-.197.25-.419.48-.661.686l-17.305 14.977-12.917 39.232-36.009 26.313s-6.135 5.14-11.736 5.617c-1.253.438-5.052 1.916-7.156 4.2-.678.736-5.997 16.445-14.247 38.66a4.753 4.753 0 0 1-5.699 2.933c-10.31-2.798-33.4-8.959-44.387-13.121a4.435 4.435 0 0 1-2.743-3.117 4.43 4.43 0 0 1 1.04-4.019c12.625-13.799 39.167-45.384 39.167-45.384l1.8-3.74s11.339-35.427 15.048-37.73c1.402-1.523 9.47-13.333 12.644-21.571.722-1.2 4.068-6.19 6.871-10.498 1.986-3.08 3.71-5.82 4.004-6.602.063-.18.169-.341.309-.47 0 0-.009-.003.002-.01 1.337-1.396 5.775-1.08 5.991 4.223.24 5.85-5.021 17.987-6.08 18.318-.536 1.29-2.058 8.243-5.036 14.129-.257.89-.64 3.188 1.872 2.631 2.514-.567 60.669-27.964 60.669-27.964l7.213-4.53a5.609 5.609 0 0 1 3.586-.875 5.806 5.806 0 0 1 3.815 2.073c2.058 2.385.714 4.676-.055 5.64Z" fill="#030E27"/><path d="M140.705 78.962c-1.039.095-2.1-.403-2.94-.964 1.986-3.08 3.71-5.82 4.004-6.602.064-.18.17-.34.309-.47 2.394 2.858-1.086 7.742-1.373 8.035Z" fill="#F2F6FF"/><path d="m200.134 72.646-42.616-12.283a5.6 5.6 0 0 0-6.932 3.83l-25.788 89.466a5.601 5.601 0 0 0 3.83 6.932l42.616 12.283a5.6 5.6 0 0 0 6.932-3.83l25.788-89.466a5.601 5.601 0 0 0-3.83-6.932Z" fill="#2B3988"/><path d="m197.893 74.887-39.672-11.435a4.2 4.2 0 0 0-5.199 2.873l-25.026 86.826a4.199 4.199 0 0 0 2.872 5.199l39.672 11.435a4.2 4.2 0 0 0 5.199-2.872l25.027-86.827a4.2 4.2 0 0 0-2.873-5.199Z" fill="#F2F6FF"/><path d="m199.924 104.157-7.153-.056a6.405 6.405 0 1 0-.101 12.811l7.153.057a6.407 6.407 0 0 0 .101-12.812ZM197.444 117.398l-9.056-.071a5.194 5.194 0 1 0-.082 10.389l9.056.071a5.194 5.194 0 0 0 .082-10.389ZM191.405 128.766l-5.351-.043a3.926 3.926 0 1 0-.062 7.853l5.351.042a3.926 3.926 0 1 0 .062-7.852Z" fill="#030E27"/><path d="m188.256 130.187-3.126-.025a.981.981 0 0 0-.988.972l-.022 2.797a.981.981 0 0 0 .972.988l3.127.024a.979.979 0 0 0 .987-.972l.022-2.797a.979.979 0 0 0-.972-.987ZM191.426 119.792l-3.502-.028a2.101 2.101 0 0 0-2.117 2.084l-.013 1.694a2.1 2.1 0 0 0 2.083 2.116l3.503.028a2.1 2.1 0 0 0 2.116-2.084l.014-1.694a2.1 2.1 0 0 0-2.084-2.116ZM195.913 106.356l-2.828-.023a2.8 2.8 0 0 0-2.822 2.778l-.018 2.224a2.8 2.8 0 0 0 2.778 2.822l2.828.022a2.798 2.798 0 0 0 2.822-2.777l.018-2.224a2.8 2.8 0 0 0-2.778-2.822Z" fill="#F2F6FF"/></svg>