<svg width="425" height="557" fill="none" xmlns="http://www.w3.org/2000/svg"><g filter="url('#filter0_d_183_1810')"><path d="M25 55c0-16.569 13.431-30 30-30h315c16.569 0 30 13.431 30 30v477H25V55Z" fill="#fff"/></g><mask id="path-2-inside-1_183_1810" fill="#fff"><path d="M45 270h339v9H45v-9Z"/></mask><path d="M384 277H45v4h339v-4Z" fill="#000" fill-opacity=".05" mask="url('#path-2-inside-1_183_1810')"/><mask id="path-4-inside-2_183_1810" fill="#fff"><path d="M45 191h339v9H45v-9Z"/></mask><path d="M384 198H45v4h339v-4Z" fill="#000" fill-opacity=".05" mask="url('#path-4-inside-2_183_1810')"/><mask id="path-6-inside-3_183_1810" fill="#fff"><path d="M45 113h339v9H45v-9Z"/></mask><path d="M384 120H45v4h339v-4Z" fill="#000" fill-opacity=".05" mask="url('#path-6-inside-3_183_1810')"/><path d="M372.5 413.976h-11c-1.381 0-2.5-.958-2.5-2.139 0-3.492 6-3.423 8-3.423s8-.069 8 3.423c0 1.181-1.119 2.139-2.5 2.139ZM367 405.42c2.209 0 4-1.533 4-3.423 0-1.89-1.791-3.422-4-3.422s-4 1.532-4 3.422c0 1.89 1.791 3.423 4 3.423ZM135.5 400.286c-4.222 0-7.917.309-8.444.618-.39.228-.779 1.892-.957 3.518a17.223 17.223 0 0 0-.099 1.853c0 2.472.528 5.062 1.056 5.371.527.309 4.222.618 8.444.618s7.917-.309 8.444-.618c.312-.182.623-1.436.826-2.59.141-.804.23-1.766.23-2.781 0-.648-.036-1.275-.1-1.853a13.913 13.913 0 0 0-.13-.927c-.203-1.155-.514-2.409-.826-2.591-.527-.309-4.222-.618-8.444-.618Z" stroke="#fff" stroke-width="1.5" stroke-linecap="round" stroke-linejoin="round"/><path d="M144.81 403.708h-7.292c-1.667 0-3.018 1.15-3.018 2.567 0 1.418 1.351 2.567 3.018 2.567h7.292M137.5 406.275v.009M284 404.136h7M284 407.559h5M295.232 409.437l1.136 2.915c.26.669-.483 1.305-1.265 1.082l-3.408-.971M291.3 412.35s-1.215.77-3.8.77c-4.694 0-8.5-3.256-8.5-7.273 0-4.016 3.806-7.272 8.5-7.272s8.5 3.256 8.5 7.272c0 2.139-.9 3.252-.9 3.252" stroke="#fff" stroke-width="1.5" stroke-linecap="round" stroke-linejoin="round"/><defs><filter id="filter0_d_183_1810" x="0" y="0" width="425" height="557" filterUnits="userSpaceOnUse" color-interpolation-filters="sRGB"><feFlood flood-opacity="0" result="BackgroundImageFix"/><feColorMatrix in="SourceAlpha" values="0 0 0 0 0 0 0 0 0 0 0 0 0 0 0 0 0 0 127 0" result="hardAlpha"/><feMorphology radius="15" in="SourceAlpha" result="effect1_dropShadow_183_1810"/><feOffset/><feGaussianBlur stdDeviation="20"/><feComposite in2="hardAlpha" operator="out"/><feColorMatrix values="0 0 0 0 0.025 0 0 0 0 0.025 0 0 0 0 0.025 0 0 0 0.15 0"/><feBlend in2="BackgroundImageFix" result="effect1_dropShadow_183_1810"/><feBlend in="SourceGraphic" in2="effect1_dropShadow_183_1810" result="shape"/></filter></defs></svg>