<svg width="18" height="16" fill="none" xmlns="http://www.w3.org/2000/svg"><path d="M15.4 10.204C16.447 9.036 17 8 17 8s-2.909-5.444-8-5.444a7.069 7.069 0 0 0-1.6.183M9 5.667c.28 0 .55.047.8.133.682.234 1.222.76 1.463 1.422.089.244.137.505.137.778M1.8 1l14.4 14M9 10.333c-.28 0-.55-.046-.8-.132a2.374 2.374 0 0 1-1.464-1.423 2.264 2.264 0 0 1-.103-.39M2.718 5.667c-.247.268-.468.53-.663.778C1.362 7.322 1 8 1 8s2.91 5.444 8 5.444c.273 0 .54-.015.8-.045" stroke="#fff" stroke-linecap="round" stroke-linejoin="round"/></svg>