<svg width="20" height="23" fill="none" xmlns="http://www.w3.org/2000/svg"><path d="M17.313 8.82s.562 1.941.562 5.191-.438 6.094-.875 6.5c-.438.407-3.5.813-7 .813s-6.563-.407-7-.813c-.438-.406-.875-3.25-.875-6.5s.563-5.192.563-5.192" stroke="#407AFF" stroke-width="1.5" stroke-linecap="round" stroke-linejoin="round"/><path d="M10 5.574c-4 0-7.5.093-8 .187s-1 .75-1 1.5.5 1.406 1 1.5c.105.02.342.04.688.058 1.302.071 4.151.13 7.312.13 3.161 0 6.01-.059 7.313-.13.345-.018.582-.038.687-.058.5-.094 1-.75 1-1.5s-.5-1.406-1-1.5c-.5-.094-4-.187-8-.187Z" stroke="#407AFF" stroke-width="1.5" stroke-linecap="round" stroke-linejoin="round"/><path d="M9.85 5.405c.617-2.305 4.157-6.298 5.845-3.375 1.688 2.923-3.54 3.993-5.846 3.375Z" stroke="#407AFF" stroke-width="1.5" stroke-linecap="round" stroke-linejoin="round"/><path d="M10.07 5.405C9.452 3.1 5.912-.893 4.224 2.03c-1.687 2.923 3.54 3.993 5.846 3.375Z" stroke="#407AFF" stroke-width="1.5" stroke-linecap="round" stroke-linejoin="round"/></svg>