<svg width="20" height="20" fill="none" xmlns="http://www.w3.org/2000/svg"><path d="M3.786 3h13.44a2 2 0 0 1 1.897 2.632l-1.667 5A2 2 0 0 1 15.559 12H5.07" stroke="#407AFF" stroke-width="1.5" stroke-linecap="round" stroke-linejoin="round"/><path d="M16 15H7.235a2 2 0 0 1-1.98-1.717L5.07 12 3.786 3l-.04-.283A2 2 0 0 0 1.765 1H1" stroke="#407AFF" stroke-width="1.5" stroke-linecap="round" stroke-linejoin="round"/><path d="M8 19a2 2 0 1 0 0-4 2 2 0 0 0 0 4ZM16 19a2 2 0 1 0 0-4 2 2 0 0 0 0 4Z" stroke="#407AFF" stroke-width="1.5" stroke-linecap="round" stroke-linejoin="round"/></svg>