<svg width="18" height="20" fill="none" xmlns="http://www.w3.org/2000/svg"><path d="M8.962 10v9M14.619 4.343a8 8 0 0 1 2.302 4.85c.037.37-.35.611-.683.445l-1.053-.526a.5.5 0 0 0-.447 0l-1.553.776a.5.5 0 0 1-.447 0l-1.553-.776a.5.5 0 0 0-.447 0l-1.553.776a.5.5 0 0 1-.447 0l-1.553-.776a.5.5 0 0 0-.447 0l-1.553.776a.5.5 0 0 1-.447 0l-1.553-.776a.5.5 0 0 0-.447 0l-1.053.526c-.332.166-.72-.076-.682-.446a8 8 0 0 1 13.616-4.849ZM8.962 1v1" stroke="#407AFF" stroke-width="1.5" stroke-linecap="round" stroke-linejoin="round"/></svg>