<svg width="18" height="19" fill="none" xmlns="http://www.w3.org/2000/svg"><path d="M5.5 11h7M9 7.5v7M16.111 17.222c.445-.389.889-3.11.889-6.222 0-.693-.022-1.367-.061-2-.137-2.208-.483-3.92-.828-4.222-.444-.39-4.111-.685-4.111-.685A47.648 47.648 0 0 0 9 4c-1.059 0-2.079.035-3 .093 0 0-3.667.296-4.111.685C1.543 5.08 1.198 6.792 1.06 9 1.022 9.633 1 10.307 1 11c0 3.111.444 5.833.889 6.222.444.39 3.555.778 7.111.778 3.556 0 6.667-.389 7.111-.778Z" stroke="#407AFF" stroke-width="1.5" stroke-linecap="round" stroke-linejoin="round"/><path d="M6 4.093V3c0-1.775 1.637-2 3-2s3 .225 3 2v1.093" stroke="#407AFF" stroke-width="1.5" stroke-linecap="round" stroke-linejoin="round"/></svg>