<svg width="24" height="17" fill="none" xmlns="http://www.w3.org/2000/svg"><path d="M5.889 10.778H12M22.885 5.889H1.115M12 1c-4.889 0-9.167.407-9.778.815-.45.3-.901 1.93-1.107 4.074C1.042 6.65 1 7.479 1 8.333c0 3.26.611 6.111 1.222 6.519.611.407 4.89.815 9.778.815 4.889 0 9.167-.408 9.778-.815.61-.408 1.222-3.26 1.222-6.519 0-.855-.042-1.682-.115-2.444-.206-2.143-.657-3.774-1.107-4.074C21.167 1.407 16.888 1 12 1Z" stroke="#407AFF" stroke-width="1.5" stroke-linecap="round" stroke-linejoin="round"/></svg>