<svg width="16" height="16" fill="none" xmlns="http://www.w3.org/2000/svg"><path d="M10.333 8a2.333 2.333 0 1 1-4.666 0 2.333 2.333 0 0 1 4.666 0Z" stroke="url('#paint0_linear_124_1556')" stroke-width="1.5" stroke-linecap="round" stroke-linejoin="round"/><path d="M1 8h1.556" stroke="url('#paint1_linear_124_1556')" stroke-width="1.5" stroke-linecap="round" stroke-linejoin="round"/><path d="M2.556 13.444 4.11 11.89" stroke="url('#paint2_linear_124_1556')" stroke-width="1.5" stroke-linecap="round" stroke-linejoin="round"/><path d="M8 13.444V15" stroke="url('#paint3_linear_124_1556')" stroke-width="1.5" stroke-linecap="round" stroke-linejoin="round"/><path d="m11.889 11.889 1.556 1.555" stroke="url('#paint4_linear_124_1556')" stroke-width="1.5" stroke-linecap="round" stroke-linejoin="round"/><path d="M2.555 2.556 4.111 4.11" stroke="url('#paint5_linear_124_1556')" stroke-width="1.5" stroke-linecap="round" stroke-linejoin="round"/><path d="M13.445 8H15" stroke="url('#paint6_linear_124_1556')" stroke-width="1.5" stroke-linecap="round" stroke-linejoin="round"/><path d="m11.889 4.111 1.555-1.555" stroke="url('#paint7_linear_124_1556')" stroke-width="1.5" stroke-linecap="round" stroke-linejoin="round"/><path d="M8 1v1.556" stroke="url('#paint8_linear_124_1556')" stroke-width="1.5" stroke-linecap="round" stroke-linejoin="round"/><defs><linearGradient id="paint0_linear_124_1556" x1="8" y1="5.667" x2="8" y2="10.333" gradientUnits="userSpaceOnUse"><stop stop-color="#FCC879"/><stop offset=".995" stop-color="#FF813A"/></linearGradient><linearGradient id="paint1_linear_124_1556" x1="1.778" y1="8" x2="1.778" y2="9" gradientUnits="userSpaceOnUse"><stop stop-color="#FCC879"/><stop offset=".995" stop-color="#FF813A"/></linearGradient><linearGradient id="paint2_linear_124_1556" x1="3.333" y1="11.889" x2="3.333" y2="13.444" gradientUnits="userSpaceOnUse"><stop stop-color="#FCC879"/><stop offset=".995" stop-color="#FF813A"/></linearGradient><linearGradient id="paint3_linear_124_1556" x1="8.5" y1="13.444" x2="8.5" y2="15" gradientUnits="userSpaceOnUse"><stop stop-color="#FCC879"/><stop offset=".995" stop-color="#FF813A"/></linearGradient><linearGradient id="paint4_linear_124_1556" x1="12.667" y1="11.889" x2="12.667" y2="13.444" gradientUnits="userSpaceOnUse"><stop stop-color="#FCC879"/><stop offset=".995" stop-color="#FF813A"/></linearGradient><linearGradient id="paint5_linear_124_1556" x1="3.333" y1="2.556" x2="3.333" y2="4.111" gradientUnits="userSpaceOnUse"><stop stop-color="#FCC879"/><stop offset=".995" stop-color="#FF813A"/></linearGradient><linearGradient id="paint6_linear_124_1556" x1="14.222" y1="8" x2="14.222" y2="9" gradientUnits="userSpaceOnUse"><stop stop-color="#FCC879"/><stop offset=".995" stop-color="#FF813A"/></linearGradient><linearGradient id="paint7_linear_124_1556" x1="12.666" y1="2.556" x2="12.666" y2="4.111" gradientUnits="userSpaceOnUse"><stop stop-color="#FCC879"/><stop offset=".995" stop-color="#FF813A"/></linearGradient><linearGradient id="paint8_linear_124_1556" x1="8.5" y1="1" x2="8.5" y2="2.556" gradientUnits="userSpaceOnUse"><stop stop-color="#FCC879"/><stop offset=".995" stop-color="#FF813A"/></linearGradient></defs></svg>