<svg width="21" height="17" fill="none" xmlns="http://www.w3.org/2000/svg"><path d="M10.5 1.248c-4.222 0-7.917.364-8.444.728-.39.269-.78 2.23-.957 4.145C1.036 6.802 1 7.54 1 8.305c0 2.913.528 5.965 1.056 6.33.527.363 4.222.727 8.444.727s7.917-.364 8.444-.728c.312-.214.623-1.692.826-3.052a23.814 23.814 0 0 0 .13-5.461c-.035-.385-.08-.75-.13-1.092-.203-1.36-.514-2.838-.826-3.053-.527-.364-4.222-.728-8.444-.728Z" stroke="#fff" stroke-width="1.5" stroke-linecap="round" stroke-linejoin="round"/><path d="M19.81 5.28h-7.292A3.021 3.021 0 0 0 9.5 8.306a3.021 3.021 0 0 0 3.018 3.025h7.292M12.5 8.305v.011" stroke="#fff" stroke-width="1.5" stroke-linecap="round" stroke-linejoin="round"/></svg>