<svg width="21" height="16" fill="none" xmlns="http://www.w3.org/2000/svg"><path d="M10.5 1c-4.222 0-7.917.361-8.444.722-.39.267-.78 2.212-.957 4.111C1.036 6.51 1 7.243 1 8c0 2.889.528 5.917 1.056 6.278.527.36 4.222.722 8.444.722s7.917-.361 8.444-.722c.312-.213.623-1.679.826-3.028a23.431 23.431 0 0 0 .13-5.417c-.035-.381-.08-.744-.13-1.083-.203-1.349-.514-2.815-.826-3.028C18.417 1.362 14.722 1 10.5 1Z" stroke="#fff" stroke-width="1.5" stroke-linecap="round" stroke-linejoin="round"/><path d="M19.81 5h-7.292A3.009 3.009 0 0 0 9.5 8c0 1.657 1.351 3 3.018 3h7.292M12.5 8v.01" stroke="#fff" stroke-width="1.5" stroke-linecap="round" stroke-linejoin="round"/></svg>