<svg width="21" height="15" fill="none" xmlns="http://www.w3.org/2000/svg"><path d="M10.5 1.286c-4.222 0-7.917.31-8.444.618-.39.228-.78 1.892-.957 3.518C1.036 6 1 6.627 1 7.275c0 2.472.528 5.063 1.056 5.371.527.31 4.222.618 8.444.618s7.917-.309 8.444-.618c.312-.182.623-1.436.826-2.59a17.176 17.176 0 0 0 .13-4.634c-.035-.327-.08-.637-.13-.927-.203-1.155-.514-2.409-.826-2.591-.527-.309-4.222-.618-8.444-.618Z" stroke="#fff" stroke-width="1.5" stroke-linecap="round" stroke-linejoin="round"/><path d="M19.81 4.708h-7.292c-1.667 0-3.018 1.15-3.018 2.567 0 1.418 1.351 2.567 3.018 2.567h7.292M12.5 7.275v.01" stroke="#fff" stroke-width="1.5" stroke-linecap="round" stroke-linejoin="round"/></svg>