<svg width="20" height="17" fill="none" xmlns="http://www.w3.org/2000/svg"><g clip-path="url('#clip0_609_102')" fill="#fff"><path d="M3.366 6.361c.235.251.411.552.529.853.117.3.176.651.176 1.002s-.059.702-.176 1.003a2.68 2.68 0 0 1-.53.853c-.293.35-.235.852.177 1.102.411.251 1 .201 1.293-.15.353-.401.588-.802.823-1.303.235-.502.294-1.003.294-1.505 0-.5-.118-1.002-.294-1.504-.176-.45-.47-.902-.823-1.303-.294-.351-.882-.401-1.293-.15-.412.25-.47.751-.176 1.102ZM6.599 4.907a5.572 5.572 0 0 1 1.116 3.31A5.572 5.572 0 0 1 6.6 11.524c-.294.351-.118.853.293 1.103.47.251 1 .1 1.294-.25.881-1.204 1.41-2.607 1.41-4.162 0-1.504-.529-2.958-1.41-4.16-.294-.352-.882-.502-1.294-.252-.411.251-.587.702-.293 1.103ZM10.008 3.403a8.228 8.228 0 0 1 1.528 4.813c0 1.755-.588 3.41-1.528 4.814-.235.4-.118.852.353 1.103.47.2.999.1 1.293-.301 1.175-1.655 1.822-3.56 1.822-5.616 0-2.055-.647-3.96-1.822-5.615-.235-.4-.823-.501-1.293-.3-.47.25-.588.701-.353 1.102Z"/><path d="M13.417 1.9c1.235 1.854 1.999 4.01 1.999 6.316 0 2.307-.706 4.463-1.999 6.318-.235.4-.117.852.353 1.102.47.201 1 .1 1.293-.3 1.41-2.106 2.234-4.513 2.234-7.12s-.823-5.013-2.234-7.119c-.235-.401-.823-.501-1.293-.3-.47.2-.588.701-.353 1.102Z"/></g><defs><clipPath id="clip0_609_102"><path fill="#fff" transform="translate(.84 .194)" d="M0 0h18.81v16.044H0z"/></clipPath></defs></svg>