<svg width="51" height="44" fill="none" xmlns="http://www.w3.org/2000/svg"><g clip-path="url('#clip0_609_81')" fill="#fff"><path d="m20.368 15.801-2.54 12.715h4.063l2.542-12.715h-4.065ZM14.423 15.815l-3.98 8.671-.423-1.309c-.785-1.578-3.013-3.843-5.629-5.271L8.03 28.51l4.3-.007 6.398-12.69-4.305.002Z"/><path d="M8.475 16.72c-.237-.774-.921-1.005-1.77-1.032h-6.3l-.052.253c4.902 1.014 8.146 3.458 9.492 6.396l-1.37-5.616ZM32.665 18.236a8.635 8.635 0 0 1 3.04.487l.368.147.55-2.756c-.805-.258-2.067-.534-3.64-.534-4.015 0-6.845 1.725-6.867 4.196-.026 1.827 2.016 2.846 3.558 3.455 1.583.624 2.114 1.02 2.107 1.578-.013.85-1.262 1.241-2.43 1.241-1.627 0-2.491-.191-3.825-.666l-.524-.203-.572 2.846c.951.356 2.706.662 4.527.677 4.271 0 7.047-1.704 7.076-4.345.018-1.444-1.066-2.547-3.414-3.452-1.421-.59-2.29-.982-2.282-1.577 0-.529.738-1.094 2.328-1.094ZM47.052 15.815h-3.14c-.974 0-1.7.226-2.128 1.055l-6.033 11.653h4.267s.696-1.567.854-1.91l5.203.005c.121.444.495 1.905.495 1.905h3.77l-3.288-12.708Zm-5.01 8.195c.334-.73 1.618-3.553 1.618-3.553-.022.034.331-.736.541-1.214l.274 1.096.942 3.671H42.04Z"/></g><defs><clipPath id="clip0_609_81"><path fill="#fff" transform="translate(.35 .826)" d="M0 0h49.987v42.635H0z"/></clipPath></defs></svg>