<svg width="21" height="20" fill="none" xmlns="http://www.w3.org/2000/svg"><mask id="path-1-inside-1_208_1900" fill="#fff"><path d="m8.387 11.525-6.775.857a1.423 1.423 0 0 1-1.058-.296 1.457 1.457 0 0 1-.543-.966l-.009-.09L0 10.82c0-.365.105-.721.302-1.026.198-.305.479-.546.809-.692l7.093-3.14-.111-3.441A2.457 2.457 0 0 1 8.68.84c.398-.466.955-.762 1.56-.828L10.42 0h.08c1.33 0 2.408 1.092 2.408 2.45l-.113 3.51 7.094 3.142c.33.146.611.387.809.692.197.305.302.661.302 1.026v.12a1.468 1.468 0 0 1-.485 1.09 1.432 1.432 0 0 1-1.128.352l-6.776-.857-.088 2.678 2.07 1.198c.258.149.472.364.62.624.15.26.228.554.228.854 0 .332-.13.65-.362.884a1.228 1.228 0 0 1-.873.366h-1.812l-.016.202c-.06.461-.283.885-.628 1.192a1.882 1.882 0 0 1-2.5.001 1.925 1.925 0 0 1-.63-1.192l-.016-.203h-1.81c-.328 0-.643-.131-.874-.366a1.258 1.258 0 0 1-.362-.884c0-.611.324-1.175.847-1.478l2.07-1.198-.088-2.678Zm-7.153-.705.001.145a.203.203 0 0 0 .076.134.198.198 0 0 0 .148.041l8.116-1.025.16 4.801-2.717 1.57a.45.45 0 0 0-.225.393h3.005l.042 1.23c0 .177.07.347.193.472a.656.656 0 0 0 .933 0 .671.671 0 0 0 .193-.472l.04-1.23h3.007l-.01-.095a.454.454 0 0 0-.215-.298l-2.718-1.57.16-4.801 8.14 1.028c.111 0 .202-.09.202-.203v-.12a.63.63 0 0 0-.371-.573l-7.862-3.482.142-4.326a1.2 1.2 0 0 0-.343-.84 1.173 1.173 0 0 0-.832-.349h-.04a1.163 1.163 0 0 0-.818.377 1.19 1.19 0 0 0-.315.852l.14 4.289-7.861 3.478a.62.62 0 0 0-.37.573v.001Z"/></mask><path d="m8.387 11.525-6.775.857a1.423 1.423 0 0 1-1.058-.296 1.457 1.457 0 0 1-.543-.966l-.009-.09L0 10.82c0-.365.105-.721.302-1.026.198-.305.479-.546.809-.692l7.093-3.14-.111-3.441A2.457 2.457 0 0 1 8.68.84c.398-.466.955-.762 1.56-.828L10.42 0h.08c1.33 0 2.408 1.092 2.408 2.45l-.113 3.51 7.094 3.142c.33.146.611.387.809.692.197.305.302.661.302 1.026v.12a1.468 1.468 0 0 1-.485 1.09 1.432 1.432 0 0 1-1.128.352l-6.776-.857-.088 2.678 2.07 1.198c.258.149.472.364.62.624.15.26.228.554.228.854 0 .332-.13.65-.362.884a1.228 1.228 0 0 1-.873.366h-1.812l-.016.202c-.06.461-.283.885-.628 1.192a1.882 1.882 0 0 1-2.5.001 1.925 1.925 0 0 1-.63-1.192l-.016-.203h-1.81c-.328 0-.643-.131-.874-.366a1.258 1.258 0 0 1-.362-.884c0-.611.324-1.175.847-1.478l2.07-1.198-.088-2.678Zm-7.153-.705.001.145a.203.203 0 0 0 .076.134.198.198 0 0 0 .148.041l8.116-1.025.16 4.801-2.717 1.57a.45.45 0 0 0-.225.393h3.005l.042 1.23c0 .177.07.347.193.472a.656.656 0 0 0 .933 0 .671.671 0 0 0 .193-.472l.04-1.23h3.007l-.01-.095a.454.454 0 0 0-.215-.298l-2.718-1.57.16-4.801 8.14 1.028c.111 0 .202-.09.202-.203v-.12a.63.63 0 0 0-.371-.573l-7.862-3.482.142-4.326a1.2 1.2 0 0 0-.343-.84 1.173 1.173 0 0 0-.832-.349h-.04a1.163 1.163 0 0 0-.818.377 1.19 1.19 0 0 0-.315.852l.14 4.289-7.861 3.478a.62.62 0 0 0-.37.573v.001Z" fill="#407AFF"/><path d="M1.612 12.382 126.121 1004.6l.456-.06.455-.05L1.612 12.382Zm-1.6-1.262-995.419 95.62 1.299 13.516 1.664 13.476L.011 11.12Zm-.01-.09-999.93 11.762.494 42.024 4.019 41.834L.002 11.03ZM0 10.82l-1000-.221v5.991l.069 5.992L0 10.82Zm1.11-1.718 404.72 914.441.068-.03.068-.03L1.111 9.103Zm7.094-3.14 404.856 914.38 616.39-272.918-21.77-673.759L8.204 5.961ZM8.093 2.52l999.477-32.297-.02-.7-.03-.701L8.093 2.521ZM10.24.013-59.391-997.56l-20.166 1.407-20.093 2.222L10.24.013ZM10.42 0v-1000H-24.44l-34.773 2.427L10.42 0Zm2.488 2.45 999.472 32.367.53-16.179V2.451H12.908Zm-.113 3.51-999.476-32.367-21.819 673.749 616.363 272.965L12.795 5.96Zm7.094 3.142L-385.042 923.45l.106.047.106.047L19.89 9.103ZM21 10.82h1000V10.6L21 10.82Zm0 .12 1000 .037v-.037H21Zm-1.613 1.442 125.398-992.107h-.001L19.387 12.382Zm-6.776-.857L138.008-980.58-950.926-1118.22-986.854-21.208 12.611 11.525Zm-.088 2.678L-986.941-18.53l-19.599 598.477 518.313 299.848L12.523 14.203Zm2.07 1.198-500.75 865.592.146.084.146.085L14.593 15.402Zm.848 1.478-1000-.131v.131h1000Zm-1.236 1.25V1018.13v-1000Zm-1.81 0v-1000H-911l-73.439 920.469L12.394 18.129Zm-.017.202 991.762 128.064 3.13-24.205 1.94-24.328L12.378 18.331Zm-3.758 0L-988.25 97.376l1.974 24.898 3.215 24.768L8.62 18.331Zm-.016-.202 996.876-79.043-73.029-920.957H8.604v1000Zm-3.046-1.25H1005.56 5.558Zm.847-1.478 500.196 865.912.39-.224.389-.226L6.405 15.401Zm2.07-1.198 500.974 865.463 518.081-299.895-19.59-598.3L8.475 14.202Zm-7.24-3.383H-998.767v4.258l.036 4.259L1.234 10.82Zm0 .145-999.963 8.517.504 59.175 7.479 58.702L1.235 10.965Zm.224.175-125.322-992.116-.834.105-.833.107L1.459 11.14Zm8.116-1.025L1009.02-23.06 972.632-1119.48-115.747-982.001 9.575 10.115Zm.16 4.801 500.468 865.755 518.867-299.94-19.89-598.99L9.735 14.917Zm-2.717 1.57L-493.45-849.269l-.636.368-.636.369L7.018 16.486Zm-.225.393-1000-.209-.208 1000.21H6.793V16.879Zm3.005 0 999.422-34.12-32.979-965.88H9.798v1000Zm.042 1.23h1000V1.044l-.58-17.055L9.84 18.11Zm1.32 0-999.485-32.115-.516 16.054v16.061h1000Zm.039-1.23v-1000h-968.385l-31.1 967.885L11.199 16.879Zm3.007 0V1016.88H1123.61L1008.84-86.574 14.205 16.88Zm-.01-.095L1008.83-86.669l-5.41-52.053-10.822-51.205L14.196 16.784Zm-.215-.298 500.398-865.795-.05-.029-.051-.029L13.981 16.486Zm-2.718-1.57-999.45-33.174-19.883 599.123 519.035 299.905L11.263 14.916Zm.16-4.801L136.67-982.011-951.637-1119.4l-36.39 1096.34 999.45 33.175Zm8.14 1.028-125.247 992.127 62.376 7.87h62.871V11.143Zm.202-.323h999.995v-.509l-999.995.51Zm-.371-.573L-385.57 924.58l.458.203.457.202L19.394 10.247Zm-7.862-3.482-999.461-32.822-22.131 674.044 616.628 273.111L11.532 6.765Zm.142-4.326 999.466 32.823.52-15.887.01-15.895L11.674 2.44ZM10.5 1.25v1000h1.066L10.5 1.25Zm-.04 0v-1000H-6.274l-16.726.56L10.46 1.25ZM9.327 2.48 1008.8-30.056l-.04-1.164-.04-1.164L9.326 2.479Zm.14 4.288 404.652 914.471 616.762-272.916-21.94-674.09L9.465 6.769Zm-7.861 3.478 404.048 914.738.302-.134.302-.133L1.605 10.247Zm-.37.573-1000.001-.51v.51h1000Zm-118.268-991.397-6.775.856 250.84 1984.212 6.775-.86-250.84-1984.208Zm-5.864.741c266.422-33.433 533.536 41.916 742.361 206.462L-618.357 797.548c209.426 165.018 477.301 240.582 744.478 207.052L-122.897-979.837Zm742.361 206.462c208.379 164.193 341.002 402.869 373.002 661.884l-1984.91 245.223c32.094 259.778 165.108 499.149 374.087 663.816L619.464-773.375ZM995.429-84.5l-.009-.09-1990.835 191.24.008.09L995.429-84.5Zm4.504 83.768-.002-.21-1999.862 23.524.003.21L999.933-.732Zm.067 11.773a998.104 998.104 0 0 1-159.906 541.662L-839.489-533.116A1001.902 1001.902 0 0 0-1000 10.599l2000 .442ZM840.094 552.703C735.278 714.835 584.843 844.314 405.83 923.543L-403.609-905.339c-179.673 79.521-330.67 209.481-435.88 372.223L840.094 552.703Zm-434.128 370.78 7.094-3.141-809.712-1828.761-7.093 3.141L405.966 923.483ZM1007.68-26.335l-.11-3.44-1998.955 64.592.111 3.44L1007.68-26.334Zm-.16-4.842c8.36 247.931-76.004 491.723-239.175 682.332L-750.984-649.475C-914.953-457.936-999.74-212.943-991.339 36.218L1007.52-31.177ZM768.345 651.155c-163.47 190.957-394.56 314.757-648.215 342.801L-99.65-993.931c-254.864 28.177-487.069 152.569-651.334 344.456L768.345 651.155ZM79.871 997.585l.179-.012L-59.212-997.573l-.179.013L79.871 997.585ZM10.419 1000h.08v-2000h-.08v2000Zm.08 0c-565.555 0-997.591-461.339-997.591-997.55H1012.91C1012.91-536.477 578.716-1000 10.5-1000v2000ZM-986.568-29.916l-.113 3.51L1012.27 38.326l.11-3.51-1998.948-64.733Zm594.431 950.223 7.095 3.142L424.821-905.245l-7.095-3.142-809.863 1828.694Zm7.307 3.236c-179.012-79.228-329.448-208.707-434.264-370.84L860.489-533.116c-105.211-162.743-256.208-292.702-435.88-372.223L-384.83 923.543Zm-434.264-370.84A998.111 998.111 0 0 1-979 11.041l2000-.442a1001.875 1001.875 0 0 0-160.511-543.715L-819.094 552.703ZM-979 10.82v.12h2000v-.12H-979Zm0 .084a998.53 998.53 0 0 1 86.5-406.49L934.246 418.661A1001.54 1001.54 0 0 0 1021 10.977l-2000-.073Zm86.5-406.49a998.554 998.554 0 0 1 246.725-338.078L686.804 757.722a1001.452 1001.452 0 0 0 247.442-339.061L-892.5-395.586Zm246.725-338.078a998.563 998.563 0 0 1 367.464-208.48L318.287 966.801a1001.426 1001.426 0 0 0 368.517-209.079L-645.775-733.664Zm367.464-208.48a998.586 998.586 0 0 1 423.096-37.581L-106.012 1004.49a1001.355 1001.355 0 0 0 424.299-37.689L-278.311-942.144Zm423.095-37.581-6.776-.856-250.795 1984.211 6.776.86L144.784-979.725ZM-986.854-21.208l-.087 2.678L1011.99 46.937l.08-2.678-1998.924-65.467Zm498.627 901.003 2.07 1.198L515.344-850.191l-2.071-1.197-1001.5 1731.183Zm2.362 1.367A998.315 998.315 0 0 1-852.276 513.48L882.703-481.431A1001.69 1001.69 0 0 0 515.051-850.36L-485.865 881.162ZM-852.276 513.48A998.281 998.281 0 0 1-984.559 16.748l1999.999.262A1001.745 1001.745 0 0 0 882.703-481.43L-852.276 513.48ZM-984.559 16.879c0-261.035 102.345-513.764 288.297-701.963L726.42 720.61c186.416-188.668 289.02-442.033 289.02-703.731H-984.559Zm288.297-701.963c186.355-188.607 441.676-296.787 710.467-296.787V1018.13c269.447 0 525.397-108.444 712.215-297.52L-696.262-685.084ZM14.205-981.871h-1.81V1018.13h1.81V-981.871ZM-984.438-61.402l-.016.201L1009.21 97.862l.02-.201L-984.438-61.402Zm5.051-48.332c30.604-237.012 145.605-457.145 326.844-618.216L676.042 766.996C857.972 605.311 973.42 384.33 1004.14 146.395L-979.387-109.734Zm326.844-618.216C-471-889.29-235.564-979.918 10.167-980l.666 2000c246.651-.08 482.975-91.049 665.209-253.004L-652.543-727.95ZM10.167-980c245.732-.082 481.231 90.39 662.883 251.614l-1327.6 1495.82C-472.206 929.272-235.819 1020.08 10.833 1020l-.666-2000ZM673.05-728.386C854.399-567.431 969.544-347.37 1000.3-110.377L-983.062 147.041c30.879 237.915 146.471 458.825 328.512 620.393l1327.6-1495.82Zm332.44 667.674-.01-.202L-988.267 97.173l.016.203L1005.49-60.712ZM8.604-981.87h-1.81V1018.13h1.81V-981.871Zm-1.81 0c268.791 0 524.112 108.18 710.467 296.787L-705.421 720.61c186.818 189.076 442.767 297.52 712.214 297.52V-981.871ZM717.26-685.084C903.213-496.885 1005.56-244.156 1005.56 16.879H-994.442c0 261.698 102.605 515.063 289.021 703.731L717.261-685.084ZM1005.56 16.879c0 352.394-186.59 683.994-498.959 864.434L-493.791-850.511c-313.416 181.045-500.651 513.773-500.651 867.39H1005.56ZM507.38 880.863l2.069-1.197L-492.5-851.259l-2.069 1.198L507.38 880.863ZM1007.94-18.53l-.09-2.678-1998.927 65.466.087 2.679L1007.94-18.53ZM-998.73 19.337l.002.145L1001.2 2.448v-.145L-998.73 19.337Zm7.985 118.022c33.014 259.105 166.573 497.497 375.641 661.162L617.727-776.322c208.984 163.599 342.488 401.895 375.489 660.893L-990.745 137.359Zm375.641 661.162c209.52 164.017 477.033 238.649 743.552 204.519L-125.53-980.764c266.413-34.106 533.821 40.49 743.257 204.442L-615.104 798.521Zm741.885 204.739 8.116-1.03-250.644-1984.231-8.116 1.025L126.781 1003.26ZM-989.874 43.29l.159 4.8L1009.18-18.258l-.16-4.801-1998.894 66.348Zm499.141-894.129-2.717 1.57L507.486 882.241l2.717-1.57-1000.936-1731.51Zm-3.989 2.307a1000.445 1000.445 0 0 0-366.193 368.216L874.622 513.621a999.554 999.554 0 0 1-365.863 367.884L-494.722-848.532Zm-366.193 368.216A1000.46 1000.46 0 0 0-993.207 16.67l1999.997.418A999.476 999.476 0 0 1 874.622 513.62L-860.915-480.316ZM6.793 1016.88h3.005V-983.121H6.793V1016.88ZM-989.62 50.999l.042 1.23L1009.26-16.01l-.04-1.23L-989.62 51Zm-.54-32.89c0 261.544 102.544 514.76 288.852 703.32L721.374-684.266C907.434-495.957 1009.84-243.08 1009.84 18.109h-2000Zm288.852 703.32c186.71 188.966 442.513 297.351 711.807 297.351V-981.223c268.945 0 524.413 108.242 710.875 296.957L-701.308 721.429ZM10.499 1018.78c269.295 0 525.098-108.385 711.808-297.351L-700.375-684.266c186.462-188.715 441.93-296.957 710.874-296.957V1018.78Zm711.808-297.351c186.306-188.558 288.853-441.774 288.853-703.32H-988.841c0-261.191 102.407-514.067 288.466-702.375L722.307 721.429ZM1010.64 50.224l.04-1.23-1998.966-64.23-.039 1.23 1998.965 64.23ZM11.199 1016.88h3.007V-983.121h-3.007V1016.88ZM1008.84-86.574l-.01-.095-1989.269 206.906.01.095L1008.84-86.574Zm-16.242-103.353a1000.472 1000.472 0 0 0-167.853-379.027L-796.506 602.177a999.555 999.555 0 0 1-167.701-378.683L992.598-189.927ZM824.745-568.954a1000.47 1000.47 0 0 0-310.366-280.355L-486.418 882.281a999.543 999.543 0 0 1-310.088-280.104L824.745-568.954ZM514.278-849.367l-2.718-1.571L-489.035 880.77l2.718 1.57L514.278-849.367ZM1010.71 48.09l.16-4.8-1998.897-66.35-.16 4.802L1010.71 48.09Zm-1124.535 954.15 8.141 1.03L144.811-980.983l-8.141-1.028-250.495 1984.251Zm133.388 8.9c555.691 0 1000.197-451.104 1000.197-1000.2H-980.235c0-548.871 444.33-999.797 999.798-999.797V1011.14ZM1019.76 10.94v-.12H-980.235v.12H1019.76Zm0-.629a1000.557 1000.557 0 0 0-160.58-543.168L-819.852 553.813A999.358 999.358 0 0 1-980.235 11.329l1999.995-1.018ZM859.18-532.857C753.98-695.403 603.03-825.165 423.443-904.49L-384.655 924.985c-179.366-79.228-330.129-208.829-435.197-371.172L859.18-532.857ZM424.358-904.085l-7.862-3.482-809.928 1828.665 7.862 3.482L424.358-904.085ZM1010.99 39.588l.15-4.326-1998.927-65.645-.142 4.326L1010.99 39.588Zm.68-36.108a1001.098 1001.098 0 0 0-74.398-379.786l-1851.374 756.58A998.794 998.794 0 0 1-988.325 1.399l1999.995 2.08Zm-74.398-379.786a1001.165 1001.165 0 0 0-214.601-324.943L-700.01 704.445a998.8 998.8 0 0 1-214.092-324.171l1851.374-756.58ZM722.671-701.249A1001.163 1001.163 0 0 0 397.08-921.104L-375.181 923.785a998.83 998.83 0 0 1-324.829-219.34L722.671-701.249ZM397.08-921.104A1001.167 1001.167 0 0 0 9.433-998.749l2.132 1999.999a998.879 998.879 0 0 1-386.746-77.465L397.08-921.104ZM10.5-998.75h-.04v2000h.04v-2000Zm-33.5.56a1001.17 1001.17 0 0 0-384.642 90.94L427.669 909.962a998.837 998.837 0 0 1-383.748 90.728L-23.001-998.19Zm-384.642 90.94a1001.182 1001.182 0 0 0-317.649 230.736L744.573 679.767a998.84 998.84 0 0 1-316.904 230.195L-407.642-907.25Zm-317.649 230.736A1001.182 1001.182 0 0 0-928.58-344.669l1875.959 693.38a998.796 998.796 0 0 1-202.806 331.056L-725.291-676.514ZM-928.58-344.669a1001.186 1001.186 0 0 0-61.486 382.011L1008.72-32.383a998.82 998.82 0 0 1-61.341 381.094L-928.58-344.669Zm-61.565 379.682.14 4.289L1008.94-25.766l-.14-4.289-1998.945 65.068Zm594.958-942.716-7.86 3.479L406.257 924.717l7.861-3.478-809.305-1828.942Zm-7.257 3.212C-582.03-825.167-732.98-695.406-838.181-532.859L840.851 553.812C735.782 716.156 585.019 845.756 405.653 924.984L-402.444-904.491Zm-435.737 371.632A1000.642 1000.642 0 0 0-998.766 10.31l1999.996 1.018a999.304 999.304 0 0 1-160.379 542.484L-838.181-532.859ZM-998.766 10.819v.001H1001.23v-.001H-998.766Z" fill="#407AFF" mask="url('#path-1-inside-1_208_1900')"/></svg>