<svg width="4" height="6" viewBox="0 0 4 6" fill="none" xmlns="http://www.w3.org/2000/svg">
<path d="M2.63555 2.40169C3.076 2.48595 3.41352 2.67978 3.64811 2.98315C3.88271 3.2809 4 3.65169 4 4.09551C4 4.4382 3.9234 4.75562 3.7702 5.04775C3.617 5.33427 3.38241 5.56461 3.06643 5.73876C2.75524 5.91292 2.37223 6 1.91741 6C1.56314 6 1.21364 5.94663 0.868941 5.83989C0.529024 5.72753 0.239378 5.57023 0 5.36798L0.452424 4.32303C0.643926 4.49157 0.864153 4.6236 1.11311 4.7191C1.36685 4.80899 1.62537 4.85393 1.88869 4.85393C2.18073 4.85393 2.41053 4.78933 2.5781 4.66011C2.74566 4.52528 2.82944 4.33708 2.82944 4.09551C2.82944 3.61236 2.51586 3.37079 1.88869 3.37079H1.35727V2.4691L2.39138 1.09551H0.251346V0H3.7702V0.884832L2.63555 2.40169Z" fill="white"/>
</svg>
