<svg width="20" height="58" viewBox="0 0 20 58" fill="none" xmlns="http://www.w3.org/2000/svg">
<path d="M10 15.5863C14.4183 15.5863 18 12.5391 18 8.78003C18 5.02103 14.4183 1.97375 10 1.97375C5.58172 1.97375 2 5.02103 2 8.78003C2 12.5391 5.58172 15.5863 10 15.5863Z" fill="#E4ECFF" stroke="#E4ECFF" stroke-width="3" stroke-linecap="round" stroke-linejoin="round"/>
<path d="M7.5 7.92931L10 10.0563L12.5 7.92931" stroke="#030E27" stroke-width="2.5" stroke-linecap="round" stroke-linejoin="round"/>
<path d="M10 55.5863C14.4183 55.5863 18 52.5391 18 48.78C18 45.021 14.4183 41.9738 10 41.9738C5.58172 41.9738 2 45.021 2 48.78C2 52.5391 5.58172 55.5863 10 55.5863Z" fill="#E4ECFF" stroke="#E4ECFF" stroke-width="3" stroke-linecap="round" stroke-linejoin="round"/>
<path d="M7.5 47.9293L10 50.0563L12.5 47.9293" stroke="#030E27" stroke-width="2.5" stroke-linecap="round" stroke-linejoin="round"/>
</svg>
