<svg width="21" height="15" viewBox="0 0 21 15" fill="none" xmlns="http://www.w3.org/2000/svg">
<path d="M10.5 1.28613C6.27778 1.28613 2.58333 1.59509 2.05556 1.90405C1.66625 2.13196 1.27694 3.79634 1.09946 5.42151C1.03633 5.99956 1 6.62679 1 7.27532C1 9.74694 1.52778 12.3375 2.05556 12.6464C2.58333 12.9554 6.27778 13.2643 10.5 13.2643C14.7222 13.2643 18.4167 12.9554 18.9444 12.6464C19.2556 12.4643 19.5667 11.2101 19.7697 10.056C19.9111 9.25232 20 8.28987 20 7.27532C20 6.62679 19.9637 5.99956 19.9005 5.42151C19.8649 5.09521 19.8207 4.78457 19.7697 4.49462C19.5667 3.34045 19.2556 2.0862 18.9444 1.90405C18.4167 1.59509 14.7222 1.28613 10.5 1.28613Z" stroke="white" stroke-width="1.5" stroke-linecap="round" stroke-linejoin="round"/>
<path d="M19.81 4.7085H12.5176C10.851 4.7085 9.5 5.85763 9.5 7.27525C9.5 8.69287 10.851 9.84201 12.5176 9.84201H19.81" stroke="white" stroke-width="1.5" stroke-linecap="round" stroke-linejoin="round"/>
<path d="M12.5 7.27527V7.28415" stroke="white" stroke-width="1.5" stroke-linecap="round" stroke-linejoin="round"/>
</svg>
