<svg width="18" height="20" viewBox="0 0 18 20" fill="none" xmlns="http://www.w3.org/2000/svg">
<path d="M8.96167 10V19" stroke="#407AFF" stroke-width="1.5" stroke-linecap="round" stroke-linejoin="round"/>
<path d="M14.6186 4.34315C15.9273 5.65184 16.7357 7.36728 16.9209 9.1923C16.9584 9.5621 16.5705 9.8044 16.2381 9.6382L15.1853 9.1118C15.0445 9.0414 14.8789 9.0414 14.7381 9.1118L13.1853 9.8882C13.0445 9.9586 12.8789 9.9586 12.7381 9.8882L11.1853 9.1118C11.0445 9.0414 10.8789 9.0414 10.7381 9.1118L9.18527 9.8882C9.04447 9.9586 8.87887 9.9586 8.73807 9.8882L7.18527 9.1118C7.04447 9.0414 6.87883 9.0414 6.73807 9.1118L5.18528 9.8882C5.04452 9.9586 4.87883 9.9586 4.73807 9.8882L3.18528 9.1118C3.04452 9.0414 2.87883 9.0414 2.73807 9.1118L1.68528 9.6382C1.35283 9.8044 0.965014 9.5621 1.00252 9.1923C1.18767 7.36727 1.99612 5.65184 3.30482 4.34315C4.80511 2.84285 6.83994 2 8.96167 2C11.0834 2 13.1183 2.84285 14.6186 4.34315Z" stroke="#407AFF" stroke-width="1.5" stroke-linecap="round" stroke-linejoin="round"/>
<path d="M8.96167 1V2" stroke="#407AFF" stroke-width="1.5" stroke-linecap="round" stroke-linejoin="round"/>
</svg>
