<svg width="18" height="16" viewBox="0 0 18 16" fill="none" xmlns="http://www.w3.org/2000/svg">
<path d="M15.4001 10.2039C16.4467 9.03588 17.0001 8.00011 17.0001 8.00011C17.0001 8.00011 14.091 2.55566 9.00015 2.55566C8.72719 2.55566 8.46047 2.57132 8.20015 2.60095C7.92639 2.6321 7.65967 2.67872 7.40015 2.73885" stroke="white" stroke-linecap="round" stroke-linejoin="round"/>
<path d="M9 5.66675C9.28048 5.66675 9.54976 5.71353 9.8 5.79952C10.4819 6.03385 11.0224 6.55933 11.2634 7.2223C11.3518 7.46559 11.4 7.72739 11.4 8.00008" stroke="white" stroke-linecap="round" stroke-linejoin="round"/>
<path d="M1.80029 1L16.2003 15" stroke="white" stroke-linecap="round" stroke-linejoin="round"/>
<path d="M8.99988 10.3334C8.7194 10.3334 8.45012 10.2865 8.19988 10.2006C7.51796 9.96625 6.97746 9.44078 6.73644 8.7778C6.69097 8.65274 6.65615 8.52277 6.63306 8.38892" stroke="white" stroke-linecap="round" stroke-linejoin="round"/>
<path d="M2.71761 5.66675C2.47102 5.9347 2.24987 6.19751 2.05491 6.44453C1.36229 7.32201 1 8.00008 1 8.00008C1 8.00008 3.90909 13.4445 9 13.4445C9.27296 13.4445 9.53968 13.4289 9.8 13.3993" stroke="white" stroke-linecap="round" stroke-linejoin="round"/>
</svg>
