<svg width="20" height="20" viewBox="0 0 20 20" fill="none" xmlns="http://www.w3.org/2000/svg">
<path d="M3.78577 3H17.2252C18.5904 3 19.5543 4.33739 19.1226 5.63246L17.4559 10.6325C17.1837 11.4491 16.4194 12 15.5586 12H5.07148" stroke="#407AFF" stroke-width="1.5" stroke-linecap="round" stroke-linejoin="round"/>
<path d="M16 15H7.23459C6.23929 15 5.39545 14.2681 5.25469 13.2828L5.07143 12L3.78571 3L3.74531 2.71716C3.60455 1.73186 2.76071 1 1.76541 1H1" stroke="#407AFF" stroke-width="1.5" stroke-linecap="round" stroke-linejoin="round"/>
<path d="M8 19C9.1046 19 10 18.1046 10 17C10 15.8954 9.1046 15 8 15C6.89543 15 6 15.8954 6 17C6 18.1046 6.89543 19 8 19Z" stroke="#407AFF" stroke-width="1.5" stroke-linecap="round" stroke-linejoin="round"/>
<path d="M16 19C17.1046 19 18 18.1046 18 17C18 15.8954 17.1046 15 16 15C14.8954 15 14 15.8954 14 17C14 18.1046 14.8954 19 16 19Z" stroke="#407AFF" stroke-width="1.5" stroke-linecap="round" stroke-linejoin="round"/>
</svg>
