<svg width="18" height="19" viewBox="0 0 18 19" fill="none" xmlns="http://www.w3.org/2000/svg">
<path d="M5.5 11H12.5" stroke="#407AFF" stroke-width="1.5" stroke-linecap="round" stroke-linejoin="round"/>
<path d="M9 7.5V14.5" stroke="#407AFF" stroke-width="1.5" stroke-linecap="round" stroke-linejoin="round"/>
<path d="M16.1111 17.2222C16.5556 16.8333 17 14.1111 17 11C17 10.3069 16.9779 9.633 16.9387 9C16.802 6.79172 16.4565 5.08002 16.1111 4.77778C15.6667 4.38889 12 4.09322 12 4.09322C11.0786 4.0345 10.059 4 9 4C7.941 4 6.92143 4.0345 6 4.09322C6 4.09322 2.33333 4.38889 1.88889 4.77778C1.54346 5.08002 1.19804 6.79172 1.06127 9C1.02206 9.633 1 10.3069 1 11C1 14.1111 1.44444 16.8333 1.88889 17.2222C2.33333 17.6111 5.44444 18 9 18C12.5556 18 15.6667 17.6111 16.1111 17.2222Z" stroke="#407AFF" stroke-width="1.5" stroke-linecap="round" stroke-linejoin="round"/>
<path d="M6 4.09322V3C6 1.22496 7.6373 1 9 1C10.3627 1 12 1.22496 12 3V4.09322" stroke="#407AFF" stroke-width="1.5" stroke-linecap="round" stroke-linejoin="round"/>
</svg>
