<svg width="21" height="17" viewBox="0 0 21 17" fill="none" xmlns="http://www.w3.org/2000/svg">
<path d="M10.5 1.24792C6.27778 1.24792 2.58333 1.61199 2.05556 1.97605C1.66625 2.2446 1.27694 4.20581 1.09946 6.12083C1.03633 6.80196 1 7.54105 1 8.30525C1 11.2177 1.52778 14.2702 2.05556 14.6343C2.58333 14.9983 6.27778 15.3624 10.5 15.3624C14.7222 15.3624 18.4167 14.9983 18.9444 14.6343C19.2556 14.4196 19.5667 12.9417 19.7697 11.5818C19.9111 10.6348 20 9.50074 20 8.30525C20 7.54105 19.9637 6.80196 19.9005 6.12083C19.8649 5.73633 19.8207 5.37029 19.7697 5.02863C19.5667 3.66862 19.2556 2.19068 18.9444 1.97605C18.4167 1.61199 14.7222 1.24792 10.5 1.24792Z" stroke="white" stroke-width="1.5" stroke-linecap="round" stroke-linejoin="round"/>
<path d="M19.81 5.28064H12.5176C10.851 5.28064 9.5 6.63472 9.5 8.30516C9.5 9.97561 10.851 11.3297 12.5176 11.3297H19.81" stroke="white" stroke-width="1.5" stroke-linecap="round" stroke-linejoin="round"/>
<path d="M12.5 8.30518V8.31615" stroke="white" stroke-width="1.5" stroke-linecap="round" stroke-linejoin="round"/>
</svg>
