<svg width="24" height="17" viewBox="0 0 24 17" fill="none" xmlns="http://www.w3.org/2000/svg">
<path d="M5.88892 10.7778C5.88892 10.7778 7.11114 10.7778 8.94447 10.7778C10.7778 10.7778 12 10.7778 12 10.7778" stroke="#407AFF" stroke-width="1.5" stroke-linecap="round" stroke-linejoin="round"/>
<path d="M22.8849 5.88867H1.11523" stroke="#407AFF" stroke-width="1.5" stroke-linecap="round" stroke-linejoin="round"/>
<path d="M12 1C7.11111 1 2.83333 1.4074 2.22222 1.81482C1.77144 2.11533 1.32067 3.74588 1.11516 5.88889C1.04207 6.65119 1 7.47827 1 8.33333C1 11.5926 1.61111 14.4444 2.22222 14.8518C2.83333 15.2593 7.11111 15.6667 12 15.6667C16.8889 15.6667 21.1667 15.2593 21.7778 14.8518C22.3889 14.4444 23 11.5926 23 8.33333C23 7.47827 22.958 6.65119 22.8849 5.88889C22.6793 3.74588 22.2285 2.11533 21.7778 1.81482C21.1667 1.4074 16.8889 1 12 1Z" stroke="#407AFF" stroke-width="1.5" stroke-linecap="round" stroke-linejoin="round"/>
</svg>
