<svg width="20" height="23" viewBox="0 0 20 23" fill="none" xmlns="http://www.w3.org/2000/svg">
<path d="M17.3125 8.81934C17.3125 8.81934 17.875 10.7612 17.875 14.0112C17.875 17.2612 17.4375 20.105 17 20.5112C16.5625 20.9175 13.5 21.3237 10 21.3237C6.5 21.3237 3.4375 20.9175 3 20.5112C2.5625 20.105 2.125 17.2612 2.125 14.0112C2.125 10.7612 2.6875 8.81934 2.6875 8.81934" stroke="#407AFF" stroke-width="1.5" stroke-linecap="round" stroke-linejoin="round"/>
<path d="M10 5.57373C5.99999 5.57373 2.5 5.66748 2 5.76123C1.49999 5.85498 1 6.51123 1 7.26123C1 8.01123 1.49999 8.66748 2 8.76123C2.10487 8.78089 2.34173 8.80056 2.6875 8.81936C3.99023 8.89019 6.83899 8.94873 10 8.94873C13.161 8.94873 16.0098 8.89019 17.3125 8.81936C17.6583 8.80056 17.8951 8.78089 18 8.76123C18.5 8.66748 19 8.01123 19 7.26123C19 6.51123 18.5 5.85498 18 5.76123C17.5 5.66748 14 5.57373 10 5.57373Z" stroke="#407AFF" stroke-width="1.5" stroke-linecap="round" stroke-linejoin="round"/>
<path d="M9.84915 5.40489C10.4669 3.09987 14.0073 -0.892991 15.6949 2.02989C17.3825 4.95291 12.1544 6.02271 9.84915 5.40489Z" stroke="#407AFF" stroke-width="1.5" stroke-linecap="round" stroke-linejoin="round"/>
<path d="M10.0701 5.40489C9.45235 3.09987 5.91197 -0.892991 4.22444 2.02989C2.53683 4.95291 7.76485 6.02271 10.0701 5.40489Z" stroke="#407AFF" stroke-width="1.5" stroke-linecap="round" stroke-linejoin="round"/>
</svg>
