<svg width="20" height="17" viewBox="0 0 20 17" fill="none" xmlns="http://www.w3.org/2000/svg">
<g clip-path="url(#clip0_609_102)">
<path d="M3.36558 6.3614C3.6007 6.61208 3.77705 6.9129 3.89461 7.21371C4.01217 7.51453 4.07096 7.86548 4.07096 8.21643C4.07096 8.56738 4.01217 8.91833 3.89461 9.21915C3.77705 9.51996 3.6007 9.82078 3.36558 10.0715C3.07167 10.4224 3.13045 10.9238 3.54192 11.1744C3.95339 11.4251 4.54121 11.375 4.83512 11.024C5.18781 10.623 5.42293 10.2219 5.65806 9.7205C5.89318 9.21915 5.95196 8.71779 5.95196 8.21643C5.95196 7.71507 5.8344 7.21371 5.65806 6.71235C5.48171 6.26113 5.18781 5.80991 4.83512 5.40882C4.54121 5.05787 3.95339 5.00773 3.54192 5.25841C3.13045 5.50909 3.07167 6.01045 3.36558 6.3614Z" fill="white"/>
<path d="M6.59856 4.90746C7.30394 5.86004 7.71541 7.01316 7.71541 8.21643C7.71541 9.41969 7.30394 10.5728 6.59856 11.5254C6.30465 11.8763 6.481 12.3777 6.89247 12.6284C7.36272 12.8791 7.89176 12.7287 8.18566 12.3777C9.06739 11.1744 9.59642 9.77064 9.59642 8.21643C9.59642 6.71235 9.06739 5.25841 8.18566 4.05515C7.89176 3.7042 7.30394 3.55379 6.89247 3.80447C6.481 4.05515 6.30465 4.50637 6.59856 4.90746Z" fill="white"/>
<path d="M10.0079 3.40338C11.0072 4.80719 11.5362 6.46167 11.5362 8.21643C11.5362 9.97118 10.9484 11.6257 10.0079 13.0295C9.77276 13.4306 9.89032 13.8818 10.3606 14.1325C10.8308 14.333 11.3599 14.2327 11.6538 13.8316C12.8294 12.1772 13.476 10.272 13.476 8.21643C13.476 6.16086 12.8294 4.25569 11.6538 2.60121C11.4186 2.20012 10.8308 2.09985 10.3606 2.30039C9.89032 2.55107 9.77276 3.0023 10.0079 3.40338Z" fill="white"/>
<path d="M13.4172 1.89931C14.6516 3.75433 15.4158 5.91018 15.4158 8.21643C15.4158 10.5227 14.7104 12.6785 13.4172 14.5335C13.1821 14.9346 13.2996 15.3859 13.7699 15.6365C14.2401 15.8371 14.7692 15.7368 15.0631 15.3357C16.4738 13.23 17.2968 10.8235 17.2968 8.21643C17.2968 5.60936 16.4738 3.20284 15.0631 1.09713C14.828 0.696045 14.2401 0.595773 13.7699 0.796317C13.2996 0.99686 13.1821 1.49822 13.4172 1.89931Z" fill="white"/>
</g>
<defs>
<clipPath id="clip0_609_102">
<rect width="18.8101" height="16.0435" fill="white" transform="translate(0.8396 0.194214)"/>
</clipPath>
</defs>
</svg>
