<svg width="51" height="44" viewBox="0 0 51 44" fill="none" xmlns="http://www.w3.org/2000/svg">
<g clip-path="url(#clip0_609_81)">
<path d="M20.3679 15.801L17.8275 28.5164H21.8905L24.433 15.801H20.3679Z" fill="white"/>
<path d="M14.4233 15.8149L10.4439 24.4864L10.0196 23.1771C9.23484 21.5995 7.00689 19.3338 4.39124 17.9059L8.02995 28.5098L12.3291 28.5035L18.7277 15.8123L14.4233 15.8149Z" fill="white"/>
<path d="M8.47458 16.7205C8.2384 15.946 7.55393 15.7151 6.70434 15.6875H0.405034L0.352783 15.9406C5.25491 16.9549 8.49861 19.3989 9.84458 22.3375L8.47458 16.7205Z" fill="white"/>
<path d="M32.665 18.2362C33.9942 18.2183 34.9577 18.4661 35.7059 18.7228L36.0727 18.8699L36.6224 16.114C35.8177 15.8564 34.5564 15.5801 32.9826 15.5801C28.9677 15.5801 26.1378 17.3048 26.1159 19.7763C26.0898 21.6026 28.1317 22.6223 29.6741 23.231C31.2573 23.8549 31.7882 24.2516 31.7809 24.8086C31.7683 25.6598 30.5185 26.0502 29.3512 26.0502C27.7242 26.0502 26.8599 25.8586 25.5255 25.3844L25.0019 25.1812L24.4303 28.0271C25.3813 28.3828 27.1358 28.6885 28.9573 28.7045C33.2282 28.7045 36.0038 27.0004 36.033 24.3594C36.0508 22.9146 34.9671 21.8121 32.619 20.9074C31.1978 20.3174 30.3283 19.9252 30.3367 19.3298C30.3367 18.8013 31.0745 18.2362 32.665 18.2362Z" fill="white"/>
<path d="M47.052 15.8148H43.9128C42.9379 15.8148 42.2126 16.0412 41.7842 16.8701L35.7513 28.523H40.0181C40.0181 28.523 40.7141 26.9561 40.8719 26.613C41.339 26.613 45.4845 26.6183 46.075 26.6183C46.1962 27.0622 46.5703 28.523 46.5703 28.523H50.3396L47.052 15.8148ZM42.0412 24.0104C42.3756 23.2804 43.66 20.4567 43.66 20.4567C43.638 20.4915 43.9912 19.7214 44.2013 19.2428L44.4751 20.3391C44.4751 20.3391 45.2536 23.3749 45.4166 24.0104H42.0412Z" fill="white"/>
</g>
<defs>
<clipPath id="clip0_609_81">
<rect width="49.9869" height="42.6346" fill="white" transform="translate(0.35022 0.825928)"/>
</clipPath>
</defs>
</svg>
