<svg width="21" height="20" viewBox="0 0 21 20" fill="none" xmlns="http://www.w3.org/2000/svg">
<mask id="path-1-inside-1_208_1900" fill="white">
<path d="M8.3869 11.5252L1.61215 12.3817C1.23458 12.4291 0.853874 12.3228 0.553669 12.0863C0.253464 11.8497 0.0583222 11.5022 0.0111182 11.1201L0.0024707 11.0301L0 10.8201C8.06639e-05 10.4554 0.105174 10.0988 0.302422 9.79365C0.499669 9.48854 0.780515 9.24824 1.11059 9.10215L8.20407 5.96141L8.09289 2.5206C8.07215 1.90552 8.2819 1.30524 8.68008 0.840096C9.07827 0.374954 9.63546 0.0793362 10.24 0.0125046L10.4191 0H10.4994C11.8299 0 12.9083 1.09151 12.9083 2.45058L12.7947 5.96016L19.8894 9.10215C20.2195 9.24824 20.5003 9.48854 20.6976 9.79365C20.8948 10.0988 20.9999 10.4554 21 10.8201V10.9401C21 11.1461 20.9567 11.3497 20.873 11.5375C20.7893 11.7252 20.6671 11.8928 20.5146 12.0292C20.362 12.1655 20.1825 12.2674 19.988 12.3282C19.7936 12.389 19.5886 12.4072 19.3866 12.3817L12.6106 11.5252L12.5229 14.2034L14.5934 15.4011C14.8509 15.55 15.0649 15.7651 15.2137 16.0246C15.3625 16.2841 15.4409 16.5789 15.4408 16.879C15.4408 17.2106 15.3107 17.5286 15.079 17.7631C14.8473 17.9976 14.5331 18.1293 14.2055 18.1293H12.3944L12.3784 18.3306C12.3188 18.7922 12.0953 19.2161 11.7497 19.5232C11.4041 19.8304 10.9599 19.9998 10.4999 20C10.04 20.0002 9.59565 19.831 9.24983 19.5241C8.90401 19.2171 8.68029 18.7934 8.62039 18.3318L8.60433 18.1293H6.79328C6.46564 18.1293 6.15142 17.9976 5.91975 17.7631C5.68807 17.5286 5.55791 17.2106 5.55791 16.879C5.55791 16.2676 5.88158 15.7037 6.40538 15.4011L8.47462 14.2034L8.3869 11.5252ZM1.23413 10.8201L1.23537 10.9651C1.24214 11.0183 1.26949 11.0666 1.31141 11.0994C1.35333 11.1322 1.40639 11.1469 1.45897 11.1401L9.57533 10.1149L9.73469 14.916L7.01812 16.4864C6.94981 16.526 6.89305 16.5832 6.85358 16.6521C6.8141 16.7211 6.7933 16.7993 6.79328 16.879H9.79769L9.83969 18.1093C9.83969 18.2864 9.9092 18.4562 10.0329 18.5814C10.1566 18.7066 10.3244 18.7769 10.4994 18.7769C10.6743 18.7769 10.8421 18.7066 10.9658 18.5814C11.0896 18.4562 11.1591 18.2864 11.1591 18.1093L11.1986 16.879H14.2055L14.1956 16.784C14.1825 16.7219 14.1565 16.6632 14.1195 16.612C14.0825 16.5607 14.0351 16.5179 13.9806 16.4864L11.2628 14.916L11.4222 10.1149L19.5633 11.1426C19.6744 11.1426 19.7646 11.0526 19.7646 10.9401V10.8201C19.7646 10.6985 19.7295 10.5795 19.6637 10.4778C19.5978 10.3761 19.5041 10.2961 19.394 10.2474L11.5321 6.76535L11.6742 2.43933C11.6744 2.28314 11.6441 2.12844 11.5851 1.98411C11.5261 1.83978 11.4396 1.70863 11.3305 1.59819C11.2214 1.48774 11.0918 1.40017 10.9492 1.34047C10.8066 1.28078 10.6537 1.25013 10.4994 1.2503H10.4599C10.3056 1.25546 10.1539 1.29137 10.0133 1.35596C9.87281 1.42056 9.74626 1.51257 9.64092 1.62673C9.53558 1.74089 9.45352 1.87496 9.39944 2.02127C9.34537 2.16757 9.32034 2.32323 9.32578 2.47934L9.46538 6.76785L1.60474 10.2462C1.49464 10.2948 1.40094 10.3749 1.33511 10.4766C1.26929 10.5783 1.23419 10.6972 1.23413 10.8188V10.8201Z"/>
</mask>
<path d="M8.3869 11.5252L1.61215 12.3817C1.23458 12.4291 0.853874 12.3228 0.553669 12.0863C0.253464 11.8497 0.0583222 11.5022 0.0111182 11.1201L0.0024707 11.0301L0 10.8201C8.06639e-05 10.4554 0.105174 10.0988 0.302422 9.79365C0.499669 9.48854 0.780515 9.24824 1.11059 9.10215L8.20407 5.96141L8.09289 2.5206C8.07215 1.90552 8.2819 1.30524 8.68008 0.840096C9.07827 0.374954 9.63546 0.0793362 10.24 0.0125046L10.4191 0H10.4994C11.8299 0 12.9083 1.09151 12.9083 2.45058L12.7947 5.96016L19.8894 9.10215C20.2195 9.24824 20.5003 9.48854 20.6976 9.79365C20.8948 10.0988 20.9999 10.4554 21 10.8201V10.9401C21 11.1461 20.9567 11.3497 20.873 11.5375C20.7893 11.7252 20.6671 11.8928 20.5146 12.0292C20.362 12.1655 20.1825 12.2674 19.988 12.3282C19.7936 12.389 19.5886 12.4072 19.3866 12.3817L12.6106 11.5252L12.5229 14.2034L14.5934 15.4011C14.8509 15.55 15.0649 15.7651 15.2137 16.0246C15.3625 16.2841 15.4409 16.5789 15.4408 16.879C15.4408 17.2106 15.3107 17.5286 15.079 17.7631C14.8473 17.9976 14.5331 18.1293 14.2055 18.1293H12.3944L12.3784 18.3306C12.3188 18.7922 12.0953 19.2161 11.7497 19.5232C11.4041 19.8304 10.9599 19.9998 10.4999 20C10.04 20.0002 9.59565 19.831 9.24983 19.5241C8.90401 19.2171 8.68029 18.7934 8.62039 18.3318L8.60433 18.1293H6.79328C6.46564 18.1293 6.15142 17.9976 5.91975 17.7631C5.68807 17.5286 5.55791 17.2106 5.55791 16.879C5.55791 16.2676 5.88158 15.7037 6.40538 15.4011L8.47462 14.2034L8.3869 11.5252ZM1.23413 10.8201L1.23537 10.9651C1.24214 11.0183 1.26949 11.0666 1.31141 11.0994C1.35333 11.1322 1.40639 11.1469 1.45897 11.1401L9.57533 10.1149L9.73469 14.916L7.01812 16.4864C6.94981 16.526 6.89305 16.5832 6.85358 16.6521C6.8141 16.7211 6.7933 16.7993 6.79328 16.879H9.79769L9.83969 18.1093C9.83969 18.2864 9.9092 18.4562 10.0329 18.5814C10.1566 18.7066 10.3244 18.7769 10.4994 18.7769C10.6743 18.7769 10.8421 18.7066 10.9658 18.5814C11.0896 18.4562 11.1591 18.2864 11.1591 18.1093L11.1986 16.879H14.2055L14.1956 16.784C14.1825 16.7219 14.1565 16.6632 14.1195 16.612C14.0825 16.5607 14.0351 16.5179 13.9806 16.4864L11.2628 14.916L11.4222 10.1149L19.5633 11.1426C19.6744 11.1426 19.7646 11.0526 19.7646 10.9401V10.8201C19.7646 10.6985 19.7295 10.5795 19.6637 10.4778C19.5978 10.3761 19.5041 10.2961 19.394 10.2474L11.5321 6.76535L11.6742 2.43933C11.6744 2.28314 11.6441 2.12844 11.5851 1.98411C11.5261 1.83978 11.4396 1.70863 11.3305 1.59819C11.2214 1.48774 11.0918 1.40017 10.9492 1.34047C10.8066 1.28078 10.6537 1.25013 10.4994 1.2503H10.4599C10.3056 1.25546 10.1539 1.29137 10.0133 1.35596C9.87281 1.42056 9.74626 1.51257 9.64092 1.62673C9.53558 1.74089 9.45352 1.87496 9.39944 2.02127C9.34537 2.16757 9.32034 2.32323 9.32578 2.47934L9.46538 6.76785L1.60474 10.2462C1.49464 10.2948 1.40094 10.3749 1.33511 10.4766C1.26929 10.5783 1.23419 10.6972 1.23413 10.8188V10.8201Z" fill="#407AFF"/>
<path d="M1.61215 12.3817L126.121 1004.6L126.577 1004.54L127.032 1004.49L1.61215 12.3817ZM0.0111182 11.1201L-995.407 106.74L-994.108 120.256L-992.444 133.732L0.0111182 11.1201ZM0.0024707 11.0301L-999.928 22.7918L-999.434 64.8158L-995.415 106.65L0.0024707 11.0301ZM0 10.8201L-1000 10.5988L-1000 16.5905L-999.931 22.5818L0 10.8201ZM1.11059 9.10215L405.83 923.543L405.898 923.513L405.966 923.483L1.11059 9.10215ZM8.20407 5.96141L413.06 920.342L1029.45 647.424L1007.68 -26.3348L8.20407 5.96141ZM8.09289 2.5206L1007.57 -29.7756L1007.55 -30.4763L1007.52 -31.177L8.09289 2.5206ZM10.24 0.0125046L-59.391 -997.56L-79.557 -996.153L-99.6497 -993.931L10.24 0.0125046ZM10.4191 0L10.4191 -1000H-24.4387L-59.2118 -997.573L10.4191 0ZM12.9083 2.45058L1012.38 34.8175L1012.91 18.6383V2.45058L12.9083 2.45058ZM12.7947 5.96016L-986.681 -26.4067L-1008.5 647.342L-392.137 920.307L12.7947 5.96016ZM19.8894 9.10215L-385.042 923.449L-384.936 923.496L-384.83 923.543L19.8894 9.10215ZM21 10.8201L1021 10.8201V10.7094V10.5988L21 10.8201ZM21 10.9401L1021 10.9766V10.9583V10.9401L21 10.9401ZM19.3866 12.3817L144.785 -979.725L144.784 -979.725L19.3866 12.3817ZM12.6106 11.5252L138.008 -980.581L-950.926 -1118.22L-986.854 -21.2081L12.6106 11.5252ZM12.5229 14.2034L-986.941 -18.5299L-1006.54 579.947L-488.227 879.795L12.5229 14.2034ZM14.5934 15.4011L-486.157 880.993L-486.011 881.077L-485.865 881.162L14.5934 15.4011ZM15.4408 16.879L-984.559 16.7476V16.8133V16.879L15.4408 16.879ZM14.2055 18.1293L14.2055 1018.13L14.2055 18.1293ZM12.3944 18.1293L12.3944 -981.871H-910.999L-984.438 -61.4022L12.3944 18.1293ZM12.3784 18.3306L1004.14 146.395L1007.27 122.19L1009.21 97.8621L12.3784 18.3306ZM8.62039 18.3318L-988.251 97.3755L-986.277 122.273L-983.062 147.041L8.62039 18.3318ZM8.60433 18.1293L1005.48 -60.9144L932.451 -981.871L8.60433 -981.871L8.60433 18.1293ZM5.55791 16.879L1005.56 16.879L5.55791 16.879ZM6.40538 15.4011L506.601 881.313L506.991 881.089L507.38 880.863L6.40538 15.4011ZM8.47462 14.2034L509.449 879.666L1027.53 579.771L1007.94 -18.5299L8.47462 14.2034ZM1.23413 10.8201L-998.766 10.8201V15.0785L-998.73 19.3369L1.23413 10.8201ZM1.23537 10.9651L-998.728 19.4819L-998.224 78.6567L-990.745 137.359L1.23537 10.9651ZM1.45897 11.1401L-123.863 -980.976L-124.697 -980.871L-125.53 -980.764L1.45897 11.1401ZM9.57533 10.1149L1009.02 -23.0594L972.632 -1119.48L-115.747 -982.001L9.57533 10.1149ZM9.73469 14.916L510.203 880.671L1029.07 580.731L1009.18 -18.2583L9.73469 14.916ZM7.01812 16.4864L-493.45 -849.269L-494.086 -848.901L-494.722 -848.532L7.01812 16.4864ZM6.79328 16.879L-993.207 16.6704L-993.415 1016.88L6.79328 1016.88L6.79328 16.879ZM9.79769 16.879L1009.22 -17.2408L976.241 -983.121L9.79769 -983.121L9.79769 16.879ZM9.83969 18.1093L1009.84 18.1093V1.0444L1009.26 -16.0106L9.83969 18.1093ZM11.1591 18.1093L-988.325 -14.0058L-988.841 2.04762V18.1093L11.1591 18.1093ZM11.1986 16.879L11.1986 -983.121L-957.186 -983.121L-988.286 -15.236L11.1986 16.879ZM14.2055 16.879L14.2055 1016.88L1123.61 1016.88L1008.84 -86.5738L14.2055 16.879ZM14.1956 16.784L1008.83 -86.6688L1003.42 -138.722L992.598 -189.927L14.1956 16.784ZM13.9806 16.4864L514.379 -849.309L514.329 -849.338L514.278 -849.367L13.9806 16.4864ZM11.2628 14.916L-988.187 -18.2583L-1008.07 580.865L-489.035 880.77L11.2628 14.916ZM11.4222 10.1149L136.67 -982.011L-951.637 -1119.4L-988.027 -23.0594L11.4222 10.1149ZM19.5633 11.1426L-105.684 1003.27L-43.3081 1011.14H19.5633L19.5633 11.1426ZM19.7646 10.8201L1019.76 10.8201V10.5655L1019.76 10.311L19.7646 10.8201ZM19.394 10.2474L-385.57 924.58L-385.112 924.783L-384.655 924.985L19.394 10.2474ZM11.5321 6.76535L-987.929 -26.057L-1010.06 647.987L-393.432 921.098L11.5321 6.76535ZM11.6742 2.43933L1011.14 35.2617L1011.66 19.3751L1011.67 3.47994L11.6742 2.43933ZM10.4994 1.2503L10.4994 1001.25H11.0323L11.5653 1001.25L10.4994 1.2503ZM10.4599 1.2503L10.4599 -998.75H-6.27516L-23.0008 -998.19L10.4599 1.2503ZM9.32578 2.47934L1008.8 -30.0546L1008.76 -31.2191L1008.72 -32.3834L9.32578 2.47934ZM9.46538 6.76785L414.118 921.239L1030.88 648.323L1008.94 -25.7661L9.46538 6.76785ZM1.60474 10.2462L405.653 924.984L405.955 924.85L406.257 924.717L1.60474 10.2462ZM1.23413 10.8188L-998.766 10.3098L-998.766 10.5643V10.8188L1.23413 10.8188ZM-117.033 -980.578L-123.808 -979.722L127.032 1004.49L133.807 1003.63L-117.033 -980.578ZM-122.897 -979.837C143.525 -1013.27 410.639 -937.921 619.464 -773.375L-618.357 797.548C-408.931 962.566 -141.056 1038.13 126.121 1004.6L-122.897 -979.837ZM619.464 -773.375C827.843 -609.182 960.466 -370.506 992.466 -111.491L-992.444 133.732C-960.35 393.51 -827.336 632.881 -618.357 797.548L619.464 -773.375ZM995.429 -84.5L995.42 -84.59L-995.415 106.65L-995.407 106.74L995.429 -84.5ZM999.933 -0.73159L999.931 -0.941639L-999.931 22.5818L-999.928 22.7918L999.933 -0.73159ZM1000 11.0413C999.958 202.491 944.83 390.694 840.094 552.703L-839.489 -533.116C-944.619 -370.496 -999.957 -181.58 -1000 10.5988L1000 11.0413ZM840.094 552.703C735.278 714.835 584.843 844.314 405.83 923.543L-403.609 -905.339C-583.282 -825.818 -734.279 -695.858 -839.489 -533.116L840.094 552.703ZM405.966 923.483L413.06 920.342L-396.652 -908.419L-403.745 -905.278L405.966 923.483ZM1007.68 -26.3348L1007.57 -29.7756L-991.385 34.8168L-991.274 38.2576L1007.68 -26.3348ZM1007.52 -31.177C1015.88 216.754 931.516 460.546 768.345 651.155L-750.984 -649.475C-914.953 -457.936 -999.74 -212.943 -991.339 36.2182L1007.52 -31.177ZM768.345 651.155C604.875 842.112 373.785 965.912 120.13 993.956L-99.6497 -993.931C-354.514 -965.754 -586.719 -841.362 -750.984 -649.475L768.345 651.155ZM79.8709 997.585L80.05 997.573L-59.2118 -997.573L-59.391 -997.56L79.8709 997.585ZM10.4191 1000H10.4994L10.4994 -1000H10.4191L10.4191 1000ZM10.4994 1000C-555.056 1000 -987.092 538.661 -987.092 2.45058L1012.91 2.45058C1012.91 -536.478 578.716 -1000 10.4994 -1000L10.4994 1000ZM-986.568 -29.9163L-986.681 -26.4067L1012.27 38.327L1012.38 34.8175L-986.568 -29.9163ZM-392.137 920.307L-385.042 923.449L424.821 -905.245L417.726 -908.387L-392.137 920.307ZM-384.83 923.543C-563.842 844.315 -714.278 714.836 -819.094 552.703L860.489 -533.116C755.278 -695.859 604.281 -825.818 424.609 -905.339L-384.83 923.543ZM-819.094 552.703C-923.83 390.693 -978.958 202.489 -979 11.0413L1021 10.5988C1020.96 -181.578 965.62 -370.495 860.489 -533.116L-819.094 552.703ZM-979 10.8201V10.9401L1021 10.9401V10.8201L-979 10.8201ZM-979 10.9036C-978.995 -128.868 -949.642 -267.389 -892.5 -395.586L934.246 418.661C991.556 290.088 1020.99 151.16 1021 10.9766L-979 10.9036ZM-892.5 -395.586C-835.343 -523.816 -751.486 -639.209 -645.775 -733.664L686.804 757.722C792.82 662.995 876.922 547.266 934.246 418.661L-892.5 -395.586ZM-645.775 -733.664C-540.028 -828.151 -414.866 -899.467 -278.311 -942.144L318.287 966.801C455.231 924.002 580.752 852.482 686.804 757.722L-645.775 -733.664ZM-278.311 -942.144C-141.728 -984.83 2.56393 -997.701 144.785 -979.725L-106.012 1004.49C36.6132 1022.52 181.315 1009.61 318.287 966.801L-278.311 -942.144ZM144.784 -979.725L138.008 -980.581L-112.787 1003.63L-106.011 1004.49L144.784 -979.725ZM-986.854 -21.2081L-986.941 -18.5299L1011.99 46.9367L1012.07 44.2585L-986.854 -21.2081ZM-488.227 879.795L-486.157 880.993L515.344 -850.191L513.273 -851.388L-488.227 879.795ZM-485.865 881.162C-639.256 792.493 -765.256 665.23 -852.276 513.48L882.703 -481.431C795.386 -633.7 668.958 -761.393 515.051 -850.36L-485.865 881.162ZM-852.276 513.48C-939.25 361.81 -984.582 190.481 -984.559 16.7476L1015.44 17.0104C1015.46 -157.323 969.975 -329.242 882.703 -481.431L-852.276 513.48ZM-984.559 16.879C-984.559 -244.156 -882.214 -496.885 -696.262 -685.084L726.42 720.61C912.836 531.942 1015.44 278.577 1015.44 16.879L-984.559 16.879ZM-696.262 -685.084C-509.907 -873.691 -254.586 -981.871 14.2055 -981.871L14.2055 1018.13C283.652 1018.13 539.602 909.686 726.42 720.61L-696.262 -685.084ZM14.2055 -981.871H12.3944L12.3944 1018.13H14.2055L14.2055 -981.871ZM-984.438 -61.4022L-984.454 -61.2009L1009.21 97.8621L1009.23 97.6608L-984.438 -61.4022ZM-979.387 -109.734C-948.783 -346.746 -833.782 -566.879 -652.543 -727.95L676.042 766.996C857.972 605.311 973.42 384.33 1004.14 146.395L-979.387 -109.734ZM-652.543 -727.95C-471 -889.29 -235.564 -979.918 10.1672 -980L10.8326 1020C257.484 1019.92 493.808 928.951 676.042 766.996L-652.543 -727.95ZM10.1672 -980C255.899 -980.082 491.398 -889.61 673.05 -728.386L-654.55 767.434C-472.206 929.272 -235.819 1020.08 10.8326 1020L10.1672 -980ZM673.05 -728.386C854.399 -567.431 969.544 -347.37 1000.3 -110.377L-983.062 147.041C-952.183 384.956 -836.591 605.866 -654.55 767.434L673.05 -728.386ZM1005.49 -60.7118L1005.48 -60.9144L-988.267 97.1729L-988.251 97.3755L1005.49 -60.7118ZM8.60433 -981.871H6.79328L6.79328 1018.13H8.60433L8.60433 -981.871ZM6.79328 -981.871C275.585 -981.871 530.906 -873.691 717.261 -685.084L-705.421 720.61C-518.603 909.686 -262.654 1018.13 6.79328 1018.13L6.79328 -981.871ZM717.261 -685.084C903.213 -496.885 1005.56 -244.156 1005.56 16.879L-994.442 16.879C-994.442 278.577 -891.837 531.942 -705.421 720.61L717.261 -685.084ZM1005.56 16.879C1005.56 369.273 818.97 700.873 506.601 881.313L-493.791 -850.511C-807.207 -669.466 -994.442 -336.738 -994.442 16.879L1005.56 16.879ZM507.38 880.863L509.449 879.666L-492.5 -851.259L-494.569 -850.061L507.38 880.863ZM1007.94 -18.5299L1007.85 -21.2081L-991.077 44.2585L-990.99 46.9367L1007.94 -18.5299ZM-998.73 19.3369L-998.728 19.4819L1001.2 2.44828L1001.2 2.30325L-998.73 19.3369ZM-990.745 137.359C-957.731 396.464 -824.172 634.856 -615.104 798.521L617.727 -776.322C826.711 -612.723 960.215 -374.427 993.216 -115.429L-990.745 137.359ZM-615.104 798.521C-405.584 962.538 -138.071 1037.17 128.448 1003.04L-125.53 -980.764C140.883 -1014.87 408.291 -940.274 617.727 -776.322L-615.104 798.521ZM126.781 1003.26L134.897 1002.23L-115.747 -982.001L-123.863 -980.976L126.781 1003.26ZM-989.874 43.2892L-989.715 48.0903L1009.18 -18.2583L1009.02 -23.0594L-989.874 43.2892ZM-490.733 -850.839L-493.45 -849.269L507.486 882.241L510.203 880.671L-490.733 -850.839ZM-494.722 -848.532C-648.032 -759.607 -773.944 -632.179 -860.915 -480.316L874.622 513.621C787.73 665.345 661.932 792.659 508.759 881.505L-494.722 -848.532ZM-860.915 -480.316C-947.84 -328.535 -993.17 -157.138 -993.207 16.6704L1006.79 17.0876C1006.76 190.737 961.468 361.977 874.622 513.621L-860.915 -480.316ZM6.79328 1016.88H9.79769L9.79769 -983.121H6.79328L6.79328 1016.88ZM-989.62 50.9988L-989.578 52.2291L1009.26 -16.0106L1009.22 -17.2408L-989.62 50.9988ZM-990.16 18.1093C-990.16 279.653 -887.616 532.869 -701.308 721.429L721.374 -684.266C907.434 -495.957 1009.84 -243.08 1009.84 18.1093L-990.16 18.1093ZM-701.308 721.429C-514.598 910.395 -258.795 1018.78 10.4994 1018.78L10.4994 -981.223C279.444 -981.223 534.912 -872.981 721.374 -684.266L-701.308 721.429ZM10.4994 1018.78C279.794 1018.78 535.597 910.395 722.307 721.429L-700.375 -684.266C-513.913 -872.981 -258.445 -981.223 10.4994 -981.223L10.4994 1018.78ZM722.307 721.429C908.613 532.871 1011.16 279.655 1011.16 18.1093L-988.841 18.1093C-988.841 -243.082 -886.434 -495.958 -700.375 -684.266L722.307 721.429ZM1010.64 50.2243L1010.68 48.994L-988.286 -15.236L-988.325 -14.0058L1010.64 50.2243ZM11.1986 1016.88H14.2055L14.2055 -983.121H11.1986L11.1986 1016.88ZM1008.84 -86.5738L1008.83 -86.6688L-980.439 120.237L-980.429 120.332L1008.84 -86.5738ZM992.598 -189.927C963.832 -326.082 906.854 -455.285 824.745 -568.954L-796.506 602.177C-878.541 488.612 -935.467 359.525 -964.207 223.494L992.598 -189.927ZM824.745 -568.954C742.611 -682.654 637.042 -778.414 514.379 -849.309L-486.418 882.281C-608.972 811.45 -714.446 715.776 -796.506 602.177L824.745 -568.954ZM514.278 -849.367L511.56 -850.938L-489.035 880.77L-486.317 882.34L514.278 -849.367ZM1010.71 48.0903L1010.87 43.2892L-988.027 -23.0594L-988.187 -18.2583L1010.71 48.0903ZM-113.825 1002.24L-105.684 1003.27L144.811 -980.983L136.67 -982.011L-113.825 1002.24ZM19.5633 1011.14C575.254 1011.14 1019.76 560.036 1019.76 10.9401L-980.235 10.9401C-980.235 -537.931 -535.905 -988.857 19.5633 -988.857L19.5633 1011.14ZM1019.76 10.9401V10.8201L-980.235 10.8201V10.9401L1019.76 10.9401ZM1019.76 10.311C1019.67 -181.703 964.3 -370.435 859.18 -532.857L-819.852 553.813C-924.841 391.594 -980.138 203.1 -980.235 11.3291L1019.76 10.311ZM859.18 -532.857C753.98 -695.403 603.03 -825.165 423.443 -904.49L-384.655 924.985C-564.021 845.757 -714.784 716.156 -819.852 553.813L859.18 -532.857ZM424.358 -904.085L416.496 -907.567L-393.432 921.098L-385.57 924.58L424.358 -904.085ZM1010.99 39.5877L1011.14 35.2617L-987.787 -30.383L-987.929 -26.057L1010.99 39.5877ZM1011.67 3.47994C1011.81 -126.516 986.625 -255.539 937.272 -376.306L-914.102 380.274C-963.337 259.795 -988.46 131.082 -988.325 1.39872L1011.67 3.47994ZM937.272 -376.306C887.912 -497.093 815.184 -607.619 722.671 -701.249L-700.01 704.445C-792.305 611.036 -864.859 500.772 -914.102 380.274L937.272 -376.306ZM722.671 -701.249C630.132 -794.907 519.597 -869.819 397.08 -921.104L-375.181 923.785C-497.413 872.619 -607.689 797.882 -700.01 704.445L722.671 -701.249ZM397.08 -921.104C274.534 -972.401 142.768 -998.891 9.43347 -998.749L11.5653 1001.25C-121.461 1001.39 -252.921 974.962 -375.181 923.785L397.08 -921.104ZM10.4994 -998.75H10.4599L10.4599 1001.25H10.4994L10.4994 -998.75ZM-23.0008 -998.19C-156.266 -993.728 -287.002 -962.704 -407.642 -907.25L427.669 909.962C307.309 965.287 176.877 996.239 43.9205 1000.69L-23.0008 -998.19ZM-407.642 -907.25C-528.255 -851.808 -636.077 -773.199 -725.291 -676.514L744.573 679.767C655.57 776.224 548 854.649 427.669 909.962L-407.642 -907.25ZM-725.291 -676.514C-814.48 -579.856 -883.366 -466.998 -928.58 -344.669L947.379 348.711C902.273 470.748 833.551 583.338 744.573 679.767L-725.291 -676.514ZM-928.58 -344.669C-973.788 -222.358 -994.599 -92.586 -990.066 37.3421L1008.72 -32.3834C1013.24 97.2325 992.479 226.693 947.379 348.711L-928.58 -344.669ZM-990.145 35.0133L-990.005 39.3018L1008.94 -25.7661L1008.8 -30.0546L-990.145 35.0133ZM-395.187 -907.703L-403.047 -904.224L406.257 924.717L414.118 921.239L-395.187 -907.703ZM-402.444 -904.491C-582.03 -825.167 -732.98 -695.406 -838.181 -532.859L840.851 553.812C735.782 716.156 585.019 845.756 405.653 924.984L-402.444 -904.491ZM-838.181 -532.859C-943.302 -370.433 -998.668 -181.701 -998.766 10.3098L1001.23 11.3279C1001.14 203.095 945.841 391.59 840.851 553.812L-838.181 -532.859ZM-998.766 10.8188V10.8201L1001.23 10.8201V10.8188L-998.766 10.8188Z" fill="#407AFF" mask="url(#path-1-inside-1_208_1900)"/>
</svg>
